:version 1.10
:name ASF
:units
  mass 1
  length 1
  angle deg
:documentation
  ASF file generated by Kaydara
:root
  axis xyz
  order  tx ty tz rx ry rz
  position 0 0 0
  orientation 0 0 0
:bonedata
  begin
    id 1
    name RightUpLegDummy
    direction -0.718183 -0.695806 0.00816078
    length 4.904
    axis 0 0 0 xyz
  end
  begin
    id 2
    name RightUpLeg
    direction 3.53373e-006 -0.995788 0.0916898
    length 17.4976
    axis -3.49089 -0.000906625 0.000286804 xyz
    dof rx ry rz
  end
  begin
    id 3
    name RightLeg
    direction 0.00371092 -0.995096 -0.0988419
    length 16.5821
    axis 3.68512 0.0193738 -0.131023 xyz
    dof rx ry rz
  end
  begin
    id 4
    name RightFoot
    direction 0.00079151 -0.46099 0.887405
    length 3.77069
    axis 4.81691e-005 -0.120479 -0.188788 xyz
    dof rx ry rz
  end
  begin
    id 5
    name RightToes
    direction 0 0 0
    length 0
    axis 0 0 0 xyz
    dof rx ry rz
  end
  begin
    id 6
    name SpineDummy
    direction 8.3039e-015 1 4.57515e-016
    length 4.6813
    axis 0 0 0 xyz
  end
  begin
    id 7
    name Spine
    direction -3.15643e-008 0.999988 0.00495137
    length 10.1015
    axis -0.001389 0.000121418 2.40972e-006 xyz
    dof rx ry rz
  end
  begin
    id 8
    name Spine1
    direction 0 0 0
    length 0
    axis -0.001389 0.000121451 1.30017e-006 xyz
    dof rx ry rz
  end
  begin
    id 9
    name HEadDummy
    direction -1.99912e-008 0.999999 0.00127422
    length 3.43865
    axis -0.001389 0.000121451 1.30017e-006 xyz
  end
  begin
    id 10
    name HEad
    direction 0 0 0
    length 0
    axis 0 0 0 xyz
    dof rx ry rz
  end
  begin
    id 11
    name LeftShoulder1Dummy
    direction 0.998891 -0.0402509 -0.0244456
    length 3.5433
    axis -0.001389 0.000121451 1.30017e-006 xyz
  end
  begin
    id 12
    name LeftShoulder1
    direction 0.99951 -0.000327763 0.0313091
    length 4.05031
    axis -0.001389 0.000121451 1.30017e-006 xyz
    dof rx ry rz
  end
  begin
    id 13
    name LeftArm
    direction 0.998561 -0.00100056 -0.0536182
    length 10.3537
    axis -23.1894 0.134784 0.967509 xyz
    dof rx ry rz
  end
  begin
    id 14
    name LeftForeArm
    direction 0.998903 0.00866432 0.046012
    length 8.70632
    axis -9.91835 -0.06569 -0.177794 xyz
    dof rx ry rz
  end
  begin
    id 15
    name LeftHand
    direction 0 0 0
    length 0
    axis 0 0 0 xyz
    dof rx ry rz
  end
  begin
    id 16
    name RightShoulderDummy
    direction -0.998891 -0.0402509 -0.0244414
    length 3.5433
    axis -0.001389 0.000121451 1.30017e-006 xyz
  end
  begin
    id 17
    name RightShoulder
    direction -0.99951 -0.000327807 0.0313133
    length 4.05031
    axis 0.215806 0.000203643 -0.0068026 xyz
    dof rx ry rz
  end
  begin
    id 18
    name RightArm
    direction -0.998573 -0.000999564 -0.053403
    length 10.3947
    axis -23.2009 -0.134239 -0.964101 xyz
    dof rx ry rz
  end
  begin
    id 19
    name RightForeArm
    direction -0.998898 0.00868028 0.0461306
    length 8.68355
    axis -9.92322 0.0658061 0.178868 xyz
    dof rx ry rz
  end
  begin
    id 20
    name RightHand
    direction 0 0 0
    length 0
    axis 0 0 0 xyz
    dof rx ry rz
  end
  begin
    id 21
    name LeftUpLegDummy
    direction 0.718183 -0.695806 0.00816078
    length 4.904
    axis 0 0 0 xyz
  end
  begin
    id 22
    name LeftUpLeg
    direction -6.81752e-006 -0.995793 0.0916337
    length 17.4976
    axis -3.48766 0.00143442 -0.000524262 xyz
    dof rx ry rz
  end
  begin
    id 23
    name LeftLeg
    direction -0.00601358 -0.995091 -0.0987824
    length 16.5821
    axis 3.68178 -0.00654042 -0.000285133 xyz
    dof rx ry rz
  end
  begin
    id 24
    name LeftFoot
    direction -0.00417578 -0.460984 0.887399
    length 3.77069
    axis 1.87233e-006 4.66016e-005 -8.6538e-006 xyz
    dof rx ry rz
  end
  begin
    id 25
    name LeftToes
    direction 0 0 0
    length 0
    axis 0 0 0 xyz
    dof rx ry rz
  end
:hierarchy
  begin
    root RightUpLegDummy SpineDummy LeftUpLegDummy
    RightUpLegDummy RightUpLeg
    RightUpLeg RightLeg
    RightLeg RightFoot
    RightFoot RightToes
    SpineDummy Spine
    Spine Spine1
    Spine1 HEadDummy LeftShoulder1Dummy RightShoulderDummy
    HEadDummy HEad
    LeftShoulder1Dummy LeftShoulder1
    LeftShoulder1 LeftArm
    LeftArm LeftForeArm
    LeftForeArm LeftHand
    RightShoulderDummy RightShoulder
    RightShoulder RightArm
    RightArm RightForeArm
    RightForeArm RightHand
    LeftUpLegDummy LeftUpLeg
    LeftUpLeg LeftLeg
    LeftLeg LeftFoot
    LeftFoot LeftToes
  end

:SAMPLES-PER-SECOND 30
:FULLY-SPECIFIED
:DEGREES
126
root  -50.9392 39.5188 5.58715 -166.532 -77.3775 160.096
RightUpLeg  15.166 -15.1812 -7.51909
RightLeg  19.8497 2.74326 1.745
RightFoot  -22.663 -0.330929 -1.80208
RightToes  0.000481921 0.542163 -0.142578
Spine  6.85283 4.95334 9.11715
Spine1  4.51402 8.51076 -12.3618
HEad  -17.8767 4.33229 -11.8319
LeftShoulder1  8.86821 -13.0922 -46.6239
LeftArm  5.61138 54.6887 -18.4457
LeftForeArm  48.9248 -3.2265 -7.69167
LeftHand  -0.25398 0.0180481 5.50724
RightShoulder  4.87325 7.97423 36.4702
RightArm  -1.28718 39.116 32.0847
RightForeArm  5.86222 55.7154 16.2397
RightHand  -1.29951 4.10999 -16.1213
LeftUpLeg  -22.155 11.4895 -2.05929
LeftLeg  9.44926 12.9081 -0.96456
LeftFoot  3.30263 0.0723897 -0.718247
LeftToes  1.06245e-005 4.65868e-005 -8.65515e-006
127
root  -52.5243 39.3546 5.55958 -158.954 -79.6943 153.068
RightUpLeg  15.2159 -14.9495 -8.08222
RightLeg  23.5515 1.87971 0.651687
RightFoot  -21.8481 0.123291 3.08194
RightToes  0.000481921 0.542163 -0.142578
Spine  5.10937 5.20562 6.59221
Spine1  3.57043 8.27733 -11.9491
HEad  -14.9961 1.91621 -11.1791
LeftShoulder1  8.81303 -13.609 -44.8733
LeftArm  3.30196 57.7576 -19.4761
LeftForeArm  47.697 -2.66729 -6.27222
LeftHand  -0.25398 0.0180481 5.50724
RightShoulder  5.08794 8.27661 37.1776
RightArm  -5.78096 30.8817 33.0169
RightForeArm  9.9633 61.5287 20.3827
RightHand  -1.61768 4.57547 -18.9743
LeftUpLeg  -23.3906 12.6501 -5.65293
LeftLeg  13.7196 8.01749 1.51633
LeftFoot  3.26954 -0.0310808 0.0865802
LeftToes  1.06245e-005 4.65868e-005 -8.65515e-006
128
root  -54.1382 39.1529 5.61851 -156.358 -79.4095 150.917
RightUpLeg  12.171 -11.8375 -8.15878
RightLeg  32.0346 -0.470804 -0.586994
RightFoot  -18.2125 0.29818 6.99341
RightToes  0.000481921 0.542163 -0.142578
Spine  3.738 5.77422 5.43806
Spine1  2.7536 8.82841 -12.8352
HEad  -12.5705 0.248382 -9.69082
LeftShoulder1  8.68103 -13.8729 -43.462
LeftArm  3.29079 60.3905 -19.7355
LeftForeArm  39.76 -4.31386 -6.37509
LeftHand  -0.25398 0.0180481 5.50724
RightShoulder  5.05809 8.31259 36.8025
RightArm  -6.94596 22.3266 37.3185
RightForeArm  9.4337 64.8044 24.0434
RightHand  -2.20642 5.91447 -22.7533
LeftUpLeg  -23.0018 10.4383 -5.76337
LeftLeg  18.3994 7.91954 3.38168
LeftFoot  3.46685 -0.0519004 0.234242
LeftToes  1.06245e-005 4.65868e-005 -8.65515e-006
129
root  -55.6411 38.883 5.77786 -158.917 -76.4331 152.494
RightUpLeg  7.74492 -8.76363 -9.72153
RightLeg  44.2715 -3.16647 -3.71601
RightFoot  -12.3221 -0.00742517 6.15058
RightToes  0.000481921 0.542163 -0.142578
Spine  4.58534 6.39363 4.95643
Spine1  2.11689 9.88877 -14.8037
HEad  -11.5709 -0.347131 -8.83531
LeftShoulder1  8.43199 -13.7676 -42.4095
LeftArm  2.61114 61.7618 -21.415
LeftForeArm  31.4016 -7.21193 -6.79077
LeftHand  -0.25398 0.0180481 5.50724
RightShoulder  5.12088 8.51607 36.6055
RightArm  -5.93204 15.9727 42.0287
RightForeArm  6.6626 65.3353 25.1387
RightHand  -2.60107 7.02784 -24.4127
LeftUpLeg  -21.1088 11.3061 -5.56474
LeftLeg  22.777 8.59535 4.25744
LeftFoot  2.668 -0.0714766 0.454648
LeftToes  1.06245e-005 4.65868e-005 -8.65515e-006
130
root  -56.9314 38.5422 5.96844 -158.484 -73.7364 149.703
RightUpLeg  3.44172 -7.25956 -12.4642
RightLeg  57.3081 -5.6461 -9.88568
RightFoot  -7.59426 -0.122131 1.92564
RightToes  0.000481921 0.542163 -0.142578
Spine  7.80475 5.95903 2.94269
Spine1  1.20835 9.61375 -15.5255
HEad  -11.7928 0.910292 -8.66126
LeftShoulder1  8.09421 -13.2751 -41.8744
LeftArm  0.307707 60.3601 -25.1261
LeftForeArm  29.1487 -10.1996 -6.65067
LeftHand  -0.25398 0.0180481 5.50724
RightShoulder  5.32021 8.9619 36.6801
RightArm  -4.16167 12.024 46.0882
RightForeArm  6.52877 64.1082 23.5724
RightHand  -2.12602 5.65288 -22.31
LeftUpLeg  -18.9889 15.2742 -7.02102
LeftLeg  27.3224 7.26184 4.38638
LeftFoot  -0.0184584 -0.152841 1.58472
LeftToes  1.06245e-005 4.65868e-005 -8.65515e-006
131
root  -58.0175 38.1971 6.1544 -154.81 -73.8891 144.09
RightUpLeg  -0.883564 -8.5746 -14.8784
RightLeg  68.6469 -5.50876 -15.8157
RightFoot  -6.39447 -0.0145593 -0.773589
RightToes  0.000481921 0.542163 -0.142578
Spine  10.9016 4.26967 0.144739
Spine1  0.696812 7.4946 -13.911
HEad  -12.9608 3.00598 -8.33433
LeftShoulder1  7.87244 -12.4163 -43.0046
LeftArm  -1.08058 54.1607 -26.7299
LeftForeArm  33.7897 -10.7437 -6.48573
LeftHand  -0.25398 0.0180481 5.50724
RightShoulder  5.47146 9.2852 36.7812
RightArm  -1.90578 9.45667 48.7452
RightForeArm  9.83248 61.0626 19.975
RightHand  -1.36722 3.24614 -18.652
LeftUpLeg  -17.8708 17.1206 -8.55714
LeftLeg  31.8785 5.6556 4.13773
LeftFoot  -3.7695 -0.181355 3.07031
LeftToes  1.06245e-005 4.65868e-005 -8.65515e-006
132
root  -58.9672 38.035 6.31306 -150.761 -75.7847 139.483
RightUpLeg  -5.8227 -11.1563 -15.7371
RightLeg  76.5015 -3.55254 -17.965
RightFoot  -7.27549 -0.0313043 -0.476878
RightToes  0.000481921 0.542163 -0.142578
Spine  12.5751 2.56192 -0.797322
Spine1  0.434569 5.37169 -12.306
HEad  -15.0198 2.23461 -8.80481
LeftShoulder1  8.11563 -11.9522 -45.7631
LeftArm  -1.95966 44.0697 -24.7573
LeftForeArm  41.7759 -8.32903 -6.52804
LeftHand  -0.25398 0.0180481 5.50724
RightShoulder  5.59408 9.37837 37.4008
RightArm  1.30338 6.90242 48.8977
RightForeArm  10.6469 54.0027 14.8234
RightHand  -1.52504 4.39683 -18.1741
LeftUpLeg  -17.1524 16.1995 -9.03793
LeftLeg  34.741 4.81745 3.94795
LeftFoot  -6.82301 -0.101925 3.5578
LeftToes  1.06245e-005 4.65868e-005 -8.65515e-006
133
root  -59.8541 38.2364 6.40028 -149.42 -77.0425 138.193
RightUpLeg  -10.9362 -12.562 -15.2754
RightLeg  79.8772 -2.33278 -17.7057
RightFoot  -7.84883 -0.0664242 0.417389
RightToes  0.000481921 0.542163 -0.142578
Spine  13.2516 1.99668 0.2772
Spine1  -0.224901 4.76557 -12.5906
HEad  -14.7676 0.608382 -8.16727
LeftShoulder1  8.7856 -12.3926 -48.2435
LeftArm  -4.74447 33.5278 -22.6704
LeftForeArm  47.6673 -6.38751 -5.49038
LeftHand  -0.25398 0.0180481 5.50724
RightShoulder  5.81121 9.5266 38.5338
RightArm  6.62043 4.1968 47.3434
RightForeArm  4.81809 40.3872 9.12076
RightHand  -2.32536 7.88113 -20.5959
LeftUpLeg  -15.2205 15.4295 -8.62533
LeftLeg  34.2836 4.48209 3.64168
LeftFoot  -8.16986 -0.0324133 2.95963
LeftToes  1.06245e-005 4.65868e-005 -8.65515e-006
134
root  -60.6882 38.7751 6.39072 -150.403 -77.4744 139.029
RightUpLeg  -15.0864 -12.4214 -14.222
RightLeg  78.742 -2.82173 -18.2377
RightFoot  -7.75726 -0.0558591 0.100144
RightToes  0.000481921 0.542163 -0.142578
Spine  12.8304 2.18038 0.900415
Spine1  0.810732 4.94911 -12.1213
HEad  -13.6834 -0.560383 -7.82174
LeftShoulder1  9.18023 -12.618 -49.714
LeftArm  -10.3882 23.2537 -22.4056
LeftForeArm  48.0661 -7.93863 -3.82948
LeftHand  -0.25398 0.0180481 5.50724
RightShoulder  5.9538 9.7023 38.9961
RightArm  9.80134 3.26452 46.1016
RightForeArm  2.34333 20.8532 5.90419
RightHand  -2.43673 8.33372 -20.7986
LeftUpLeg  -11.5815 15.8494 -7.8537
LeftLeg  30.6388 4.0206 2.92529
LeftFoot  -7.91626 -0.0195287 2.25614
LeftToes  1.06245e-005 4.65868e-005 -8.65515e-006
135
root  -61.4609 39.4808 6.29575 -151.977 -78.5528 140.382
RightUpLeg  -17.5684 -11.7322 -12.674
RightLeg  73.9554 -4.7633 -19.2705
RightFoot  -8.00656 -0.0410276 -0.448281
RightToes  0.000481921 0.542163 -0.142578
Spine  12.6721 2.04707 1.39947
Spine1  1.62135 4.66008 -10.9022
HEad  -12.1635 -1.26494 -7.56214
LeftShoulder1  9.13554 -12.69 -49.249
LeftArm  -14.4184 14.1818 -23.5215
LeftForeArm  39.4508 -11.7212 -3.3188
LeftHand  -0.25398 0.0180481 5.50724
RightShoulder  6.30902 10.3053 39.569
RightArm  -4.80753 1.12539 43.4813
RightForeArm  18.0083 2.27438 7.70083
RightHand  -2.03168 6.46669 -20.1473
LeftUpLeg  -7.03594 16.1851 -6.46738
LeftLeg  25.1762 3.06287 1.94823
LeftFoot  -6.65932 -0.032748 1.78646
LeftToes  1.06245e-005 4.65868e-005 -8.65515e-006
